<svg xmlns="http://www.w3.org/2000/svg" width="18" height="18" viewBox="0 0 18 18" fill="none">
  <path d="M15.6604 7.57139C16.0132 6.49889 15.8917 5.32401 15.3275 4.34848C14.479 2.8522 12.7732 2.0824 11.1074 2.44466C10.3663 1.59906 9.3015 1.11818 8.18523 1.12507C6.4824 1.12114 4.97152 2.23153 4.44765 3.87252C3.35374 4.09943 2.4095 4.79293 1.85696 5.77585C1.00214 7.2682 1.19701 9.14938 2.33904 10.4291C1.98622 11.5016 2.10772 12.6765 2.67192 13.652C3.52042 15.1483 5.22617 15.9181 6.89207 15.5558C7.63268 16.4014 8.69792 16.8823 9.81419 16.8749C11.518 16.8793 13.0294 15.768 13.5532 14.1255C14.6471 13.8986 15.5914 13.2051 16.1439 12.2222C16.9978 10.7298 16.8024 8.85012 15.6609 7.57041L15.6604 7.57139ZM9.81516 15.8457C9.13335 15.8467 8.47292 15.605 7.94953 15.1626C7.97335 15.1498 8.01465 15.1266 8.04138 15.1099L11.138 13.2986C11.2964 13.2076 11.3936 13.0368 11.3926 12.8522V8.43077L12.7013 9.19614C12.7154 9.20303 12.7247 9.21681 12.7266 9.23256V12.894C12.7247 14.5222 11.4227 15.8423 9.81516 15.8457ZM3.55396 13.1372C3.21232 12.5396 3.08937 11.8392 3.20649 11.1595C3.22933 11.1733 3.26966 11.1984 3.29834 11.2151L6.39492 13.0264C6.55189 13.1194 6.74628 13.1194 6.90373 13.0264L10.6841 10.8155V12.3462C10.685 12.362 10.6778 12.3772 10.6656 12.3871L7.53549 14.2175C6.14125 15.0307 4.36066 14.5473 3.55444 13.1372H3.55396ZM2.73899 6.29118C3.07917 5.69267 3.61616 5.23493 4.25569 4.9972C4.25569 5.02427 4.25424 5.07201 4.25424 5.10548V8.72855C4.25326 8.91263 4.35046 9.08342 4.5084 9.17448L8.28874 11.3849L6.98003 12.1503C6.96691 12.1592 6.95038 12.1606 6.9358 12.1542L3.8052 10.3223C2.41388 9.50622 1.93666 7.7033 2.7385 6.29168L2.73899 6.29118ZM13.4915 8.82551L9.71117 6.61456L11.0199 5.84968C11.033 5.84082 11.0495 5.83935 11.0641 5.84574L14.1947 7.67623C15.5885 8.4918 16.0662 10.2977 15.2609 11.7093C14.9203 12.3068 14.3837 12.7646 13.7447 13.0028V9.27144C13.7462 9.08736 13.6494 8.91706 13.492 8.82551H13.4915ZM14.7939 6.83998C14.7711 6.82571 14.7307 6.8011 14.7021 6.78437L11.6055 4.97308C11.4485 4.88005 11.2541 4.88005 11.0967 4.97308L7.31632 7.18403V5.6533C7.31535 5.63754 7.32264 5.62229 7.33478 5.61244L10.4649 3.78343C11.8591 2.96885 13.6417 3.45366 14.4455 4.86627C14.7852 5.46281 14.9081 6.16124 14.7929 6.83998H14.7939ZM6.60486 9.56824L5.29566 8.80287C5.28157 8.79598 5.27234 8.7822 5.27039 8.76645V5.10499C5.27137 3.47483 6.57716 2.15377 8.18669 2.15475C8.86753 2.15475 9.5265 2.39691 10.0499 2.83792C10.0261 2.85072 9.98525 2.87385 9.95804 2.89059L6.86145 4.70188C6.70303 4.79293 6.60583 4.96323 6.6068 5.14781L6.60486 9.56725V9.56824ZM7.31583 8.01585L8.99971 7.03096L10.6836 8.01535V9.98464L8.99971 10.969L7.31583 9.98464V8.01585Z" fill="#1D2939"/>
</svg>